<svg width="95" height="115" viewBox="0 0 95 115" fill="none" xmlns="http://www.w3.org/2000/svg">
<path d="M83.597 20.8177C74.3633 7.56066 56.1269 3.63122 42.941 12.0586L19.7835 26.8641C16.6552 28.8383 13.9719 31.4456 11.9052 34.5193C9.83845 37.593 8.43381 41.0655 7.78102 44.7147C6.67635 50.8616 7.64729 57.2026 10.5401 62.7336C8.55787 65.75 7.2059 69.1381 6.5659 72.6934C5.90619 76.4161 5.99416 80.2335 6.82466 83.9217C7.65516 87.6099 9.21146 91.0946 11.4023 94.1714C20.6379 107.43 38.8744 111.357 52.0582 102.931L75.2157 88.1251C78.3443 86.1511 81.0277 83.5438 83.0945 80.4701C85.1612 77.3963 86.5657 73.9238 87.2182 70.2745C88.3228 64.1276 87.3526 57.7867 84.4612 52.2551C86.4429 49.2388 87.7943 45.8508 88.4337 42.2957C89.0938 38.573 89.0061 34.7555 88.1756 31.0673C87.3451 27.379 85.7885 23.8943 83.5973 20.8177" fill="#FC2602"/>
<path d="M40.6787 95.4187C37.0344 96.3693 33.1871 96.175 29.6564 94.8622C26.1257 93.5494 23.0817 91.1813 20.9355 88.0777C19.6177 86.2275 18.6816 84.1319 18.1821 81.9139C17.6825 79.6959 17.6296 77.4002 18.0264 75.1614C18.1607 74.4263 18.3456 73.7015 18.5798 72.9921L19.0159 71.6581L20.2023 72.5322C22.9423 74.5518 26.0059 76.0873 29.261 77.0725L30.1217 77.3344L30.0424 78.1961C29.9373 79.4219 30.2682 80.6455 30.9765 81.65C31.6224 82.5849 32.5387 83.2984 33.6017 83.6942C34.6648 84.09 35.8233 84.149 36.9208 83.8632C37.4241 83.7283 37.9038 83.5168 38.3432 83.2361L61.5014 68.4323C62.068 68.0744 62.5541 67.602 62.9287 67.0452C63.3033 66.4885 63.5582 65.8595 63.6771 65.1985C63.796 64.5237 63.7797 63.8319 63.6291 63.1635C63.4786 62.4951 63.1969 61.8634 62.8004 61.3054C62.1541 60.3703 61.2374 59.6566 60.174 59.2606C59.1106 58.8646 57.9518 58.8054 56.8538 59.0909C56.3511 59.2259 55.8721 59.4372 55.4332 59.7176L46.5962 65.3685C45.1431 66.2953 43.5573 66.9939 41.8937 67.44C38.2495 68.3905 34.4022 68.1962 30.8716 66.8834C27.3409 65.5705 24.297 63.2024 22.1508 60.0989C20.833 58.2487 19.8968 56.1531 19.3973 53.9352C18.8977 51.7172 18.8448 49.4214 19.2417 47.1827C19.6341 44.9883 20.4788 42.9002 21.7218 41.052C22.9647 39.2039 24.5785 37.6363 26.4599 36.4495L49.616 21.6444C51.0697 20.7161 52.6567 20.0166 54.3216 19.5704C57.9658 18.62 61.813 18.8143 65.3437 20.1271C68.8743 21.4399 71.9183 23.808 74.0645 26.9115C75.3822 28.7617 76.3183 30.8573 76.8179 33.0753C77.3174 35.2933 77.3704 37.589 76.9736 39.8278C76.8387 40.5627 76.6538 41.2875 76.4202 41.9971L75.9841 43.3311L74.7983 42.4582C72.0585 40.4375 68.9946 38.9014 65.7389 37.9161L64.8782 37.654L64.9575 36.7924C65.0618 35.5666 64.731 34.3434 64.0235 33.3385C63.3776 32.4036 62.4613 31.6901 61.3982 31.2943C60.3352 30.8986 59.1767 30.8396 58.0792 31.1253C57.5759 31.2602 57.0962 31.4717 56.6567 31.7524L33.4986 46.5568C32.932 46.9144 32.4461 47.3867 32.0717 47.9433C31.6974 48.5 31.4429 49.1289 31.3245 49.7898C31.2049 50.4645 31.2208 51.1564 31.371 51.825C31.5213 52.4935 31.8029 53.1253 32.1996 53.6833C32.8459 54.6184 33.7626 55.3321 34.8259 55.7281C35.8893 56.1241 37.0482 56.1833 38.1462 55.8978C38.6494 55.7626 39.129 55.5511 39.5685 55.2707L48.4043 49.6219C49.8568 48.6939 51.4426 47.9947 53.1063 47.5487C56.7506 46.5982 60.5978 46.7925 64.1285 48.1053C67.6591 49.4182 70.7031 51.7863 72.8493 54.8899C74.1671 56.74 75.1032 58.8356 75.6028 61.0536C76.1023 63.2716 76.1552 65.5673 75.7584 67.8061C75.3657 70.0006 74.5209 72.0888 73.278 73.9372C72.0351 75.7856 70.4214 77.3536 68.5402 78.5409L45.384 93.3447C43.9302 94.2731 42.3433 94.9725 40.6784 95.4187" fill="white"/>
</svg>
