<svg width="342" height="88" viewBox="0 0 342 88" fill="none"><style>.a{fill:white;}</style><path d="M171.9 27.1H182.8V66.4H171.9V61.3C167.9 67.2 162.8 67.6 159.7 67.6 147.5 67.6 139.7 58.2 139.7 46.8 139.7 35 147.5 26 158.9 26 162 26 167.9 26.4 171.5 32.2V27.1H171.9ZM151.4 46.8C151.4 53.1 155.8 57.8 162.4 57.8 168.7 57.8 173.4 53.1 173.4 46.8 173.4 40.5 169.1 35.8 162.4 35.8 156.2 35.8 151.4 40.5 151.4 46.8ZM204.4 36.6V66.4H193.4V36.6H189.1V27.1H193.4V13.8H204.4V27.1H211.9V36.6H204.4ZM237.8 36.6C235 34.2 232.7 33.8 231.5 33.8 228.8 33.8 227.2 35 227.2 37 227.2 38.1 227.6 39.3 230.7 40.5L233.5 41.3C236.6 42.5 241.3 43.6 243.3 46.8 244.5 48.4 245.2 50.7 245.2 53.5 245.2 57 244.1 60.5 240.9 63.3 237.8 66 233.9 67.6 229.2 67.6 220.9 67.6 216.6 63.7 213.8 60.9L219.7 54.2C222.1 56.6 225.2 59 228.4 59 231.5 59 233.9 57.4 233.9 54.6 233.9 52.3 231.9 51.1 230.3 50.7L228 49.9C225.2 48.7 222.1 47.6 219.7 45.2 217.8 43.2 216.6 40.9 216.6 37.7 216.6 33.8 218.6 30.7 220.5 28.7 223.7 26.4 227.6 26 230.7 26 233.5 26 238.2 26.4 243.3 30.3L237.8 36.6V36.6ZM261.7 32.2C265.6 26.7 271.1 26 274.3 26 285.7 26 293.5 35 293.5 46.8 293.5 58.6 285.7 67.6 273.9 67.6 271.5 67.6 265.6 67.2 261.3 61.3V66.4H250.7V0.4H261.7V32.2 32.2ZM260.5 46.8C260.5 53.1 264.9 57.8 271.5 57.8 277.8 57.8 282.5 53.1 282.5 46.8 282.5 40.5 278.2 35.8 271.5 35.8 264.9 35.8 260.5 40.5 260.5 46.8ZM311.6 60.5L292.7 27.1H305.7L317.8 49.5 328.8 27.1H341.4L310 87.2H297.4L311.6 60.5ZM136.9 33.8H109.5V44.8H124C121.6 52.3 116.1 57.4 105.9 57.4 94.5 57.4 86.3 48 86.3 36.6 86.3 25.2 94.1 15.4 105.5 15.4 111.8 15.4 118.1 18.5 122 23.6L131 17.7C125.2 9.5 115.7 4.7 105.5 4.7 88.3 4.7 74.1 18.9 74.1 36.6 74.1 54.2 87.5 68.4 105.5 68.4 123.6 68.4 136.9 54.2 136.9 36.6 137.3 35.4 136.9 34.6 136.9 33.8V33.8Z" class="a"></path><path d="M57 38.1H41.1V42.7H52C50.4 49.5 45.4 55.2 38.8 57.5L12.7 31.3C15.4 23.3 23.1 17.6 32 17.6 38.8 17.6 45 21 48.8 26.2L52.2 23.3C47.7 17.1 40.4 13 32 13 20.2 13 10.2 21.4 7.7 32.6L37.7 62.8C48.6 60 57 50 57 38.1ZM7 38.3C7 44.7 9.5 50.9 14.3 55.7 19 60.5 25.4 63 31.5 63L7 38.3Z" class="a"></path><path d="M32 6C14.4 6 0 20.4 0 38 0 55.6 14.4 70 32 70 49.6 70 64 55.6 64 38 64 20.4 49.6 6 32 6ZM14.2 55.8C9.4 51 6.9 44.6 6.9 38.5L31.8 63.1C25.4 62.9 19 60.6 14.2 55.8ZM37.5 62.5L7.5 32.5C10.1 21.3 20.1 12.9 32 12.9 40.5 12.9 47.8 17 52.3 23.1L48.9 26.1C45 20.9 38.9 17.4 32 17.4 23.1 17.4 15.5 23.1 12.6 31.1L38.9 57.4C45.5 55.1 50.5 49.4 52.1 42.6H41.1V38H57.1C57.1 49.9 48.7 59.9 37.5 62.5Z" fill="#639"></path></svg>