<svg xmlns="http://www.w3.org/2000/svg" width="183" height="40" viewBox="0 0 183 40" fill="none"><path d="M3.4 29H5.6V8H3.4V29ZM28.2 29H30.5L20.9 8H18.7L9.1 29H11.4L13.9 23.4H25.6L28.2 29ZM14.8 21.6L19.8 10.3 24.8 21.6H14.8ZM54 8L44.9 23.6 35.8 8H34V29H36.1V12.3L44.4 26.3H45.4L53.7 12.2V29H55.8V8H54Z" fill="white"/><path d="M66.7 29.4C72 29.4 74.8 26.7 74.8 21.3V8H61.7V12.6H68.9V21.6C68.9 23.6 68 24.7 66.3 24.7 64.9 24.7 63.8 23.9 62.6 22.5L59.4 26.3C61 28.3 63.6 29.4 66.7 29.4ZM103.2 29L103.2 8H98.3L91.1 20.1 83.7 8H78.8V29H84.3V18.2L89.7 26.9H92.3L97.7 17.9 97.8 29H103.2ZM107.4 29H113.4V8H107.4V29ZM122.1 29H128V12.7H134.4V8H115.6V12.7H122.1V29ZM146.8 29.4C150.7 29.4 153.8 28 155.8 25.5L152.1 22C150.7 23.6 149.1 24.5 147.1 24.5 143.7 24.5 141.3 22.1 141.3 18.5 141.3 14.9 143.7 12.5 147.1 12.5 149.1 12.5 150.7 13.4 152.1 15L155.8 11.5C153.8 9 150.7 7.6 146.8 7.6 140.1 7.6 135.3 12.1 135.3 18.5 135.3 24.9 140.1 29.4 146.8 29.4ZM172.5 8V15.9H164.4V8H158.5V29H164.4V20.8H172.5V29H178.5V8H172.5Z" fill="#FC2602"/></svg>