<svg xmlns="http://www.w3.org/2000/svg" width="182" height="23" viewBox="0 0 182 23" fill="none"><path d="M3.4 22H5.6V1H3.4V22ZM28.2 22H30.5L20.9 1H18.7L9.1 22H11.4L13.9 16.4H25.6L28.2 22ZM14.8 14.6L19.8 3.3 24.8 14.6H14.8ZM54 1L44.9 16.6 35.8 1H34V22H36.1V5.3L44.4 19.3H45.4L53.7 5.2V22H55.8V1H54Z" fill="white"/><path d="M65.7 22.4C71 22.4 73.8 19.7 73.8 14.3V1H60.7V5.6H67.9V14.6C67.9 16.6 67 17.7 65.3 17.7 63.9 17.7 62.8 16.9 61.6 15.5L58.4 19.3C60 21.3 62.6 22.4 65.7 22.4ZM102.2 22L102.2 1H97.3L90.1 13.1 82.7 1H77.8V22H83.3V11.2L88.7 19.9H91.3L96.7 10.9 96.8 22H102.2ZM106.4 22H112.4V1H106.4V22ZM121.1 22H127V5.7H133.4V1H114.6V5.7H121.1V22ZM145.8 22.4C149.7 22.4 152.8 21 154.8 18.5L151.1 15C149.7 16.6 148.1 17.5 146.1 17.5 142.7 17.5 140.3 15.1 140.3 11.5 140.3 7.9 142.7 5.5 146.1 5.5 148.1 5.5 149.7 6.4 151.1 8L154.8 4.5C152.8 2 149.7 0.6 145.8 0.6 139.1 0.6 134.3 5.1 134.3 11.5 134.3 17.9 139.1 22.4 145.8 22.4ZM171.5 1V8.9H163.4V1H157.5V22H163.4V13.8H171.5V22H177.5V1H171.5Z" fill="#FC2602"/></svg>
 