<svg xmlns="http://www.w3.org/2000/svg" width="512" height="132" viewBox="0 0 512 132" fill="none"><style>.a{fill:#E55737;}.b{fill:#F6C943;}.c{fill:#7B8FEC;}.d{fill:#D77EE9;}</style><path d="M168.8 37.9H172C174.1 37.9 175.9 39.7 175.9 41.9V45.6C175.9 45.7 176 45.8 176.1 45.8 177.9 42.6 180.3 40.3 183.4 38.8 186.5 37.3 189.8 36.6 193.3 36.6 197.1 36.6 200.6 37.3 203.6 38.7 206.7 40.2 209.3 42.1 211.4 44.6 213.6 47 215.2 49.9 216.3 53.3 217.4 56.6 218 60.2 218 64.1 218 67.9 217.4 71.5 216.2 74.9 215.1 78.2 213.4 81.1 211.3 83.6 209.2 86 206.6 88 203.6 89.4 200.6 90.8 197.4 91.5 193.8 91.5 191.5 91.5 189.4 91.3 187.6 90.8 185.8 90.3 184.2 89.6 182.8 88.8 181.4 88 180.2 87.2 179.2 86.2 178.3 85.3 177.5 84.4 176.8 83.6 176.7 83.6 176.5 83.7 176.5 83.9V110.3C176.5 112.9 174.4 115.1 171.7 115.1H168.8C166.2 115.1 164 112.9 164 110.3V42.7C164 40.1 166.2 37.9 168.8 37.9ZM205.5 64.1C205.5 62 205.2 60.1 204.5 58.2 203.8 56.3 202.9 54.6 201.6 53.2 200.3 51.7 198.8 50.6 197 49.7 195.1 48.8 193.1 48.4 190.8 48.4 188.5 48.4 186.5 48.8 184.7 49.7 182.8 50.6 181.3 51.7 180 53.2 178.7 54.6 177.8 56.3 177.1 58.2 176.4 60.1 176.1 62 176.1 64.1 176.1 66.1 176.4 68.1 177.1 70 177.8 71.8 178.7 73.5 180 75 181.3 76.4 182.8 77.6 184.7 78.5 186.5 79.3 188.5 79.8 190.8 79.8 193.1 79.8 195.1 79.3 197 78.5 198.8 77.6 200.3 76.4 201.6 75 202.9 73.5 203.8 71.8 204.5 70 205.2 68.1 205.5 66.1 205.5 64.1ZM236 37.9H239.6C241.9 37.9 243.8 39.8 243.8 42.1V46C243.8 46.1 243.8 46.2 244 46.2 245.3 43.2 247.3 40.8 249.9 39.1 252.5 37.5 255.4 36.6 258.8 36.6 259.5 36.6 260.3 36.7 261 36.8 262.3 37.1 263.2 38.2 263.2 39.6V46.7C263.2 48.2 262.1 49.4 260.6 49.4 260.5 49.4 260.3 49.3 260.2 49.3 259.2 49.1 258.2 49 257.2 49 254.3 49 251.9 49.6 250.2 50.7 248.4 51.9 247 53.1 246.1 54.6 245.2 56 244.5 57.5 244.2 59 243.9 60.4 243.8 61.5 243.8 62.2V85.4C243.8 88.1 241.6 90.2 239 90.2H236C233.4 90.2 231.2 88.1 231.2 85.4V42.7C231.2 40.1 233.4 37.9 236 37.9ZM278.3 37.9H281.3C283.9 37.9 286.1 40.1 286.1 42.7V85.4C286.1 88.1 283.9 90.2 281.3 90.2H278.3C275.7 90.2 273.6 88.1 273.6 85.4V42.7C273.6 40.1 275.7 37.9 278.3 37.9ZM271.8 20.2C271.8 18.1 272.5 16.2 274 14.7 275.5 13.1 277.4 12.3 279.7 12.3 282 12.3 283.9 13.1 285.5 14.6 287.1 16 287.8 17.9 287.8 20.2 287.8 22.4 287.1 24.3 285.5 25.8 283.9 27.3 282 28 279.7 28 277.4 28 275.5 27.2 274 25.7 272.5 24.1 271.8 22.3 271.8 20.2ZM325.7 49.9C323.1 48 320.9 47.1 318.9 47.1 317.2 47.1 315.6 47.5 314 48.4 312.4 49.3 311.6 50.7 311.6 52.6 311.6 54.2 312.3 55.4 313.6 56.1 314.9 56.8 316.6 57.5 318.6 58 320.6 58.5 322.8 59 325.1 59.6 327.4 60.1 329.6 60.9 331.6 62.1 333.6 63.2 335.3 64.7 336.6 66.7 337.9 68.6 338.6 71.3 338.6 74.7 338.6 77.9 338 80.5 336.7 82.6 335.4 84.8 333.7 86.5 331.7 87.8 329.6 89.1 327.3 90.1 324.7 90.7 322.2 91.2 319.6 91.5 317 91.5 313.1 91.5 309.6 90.9 306.3 89.8 305 89.3 303.5 88.4 301.7 87 299.6 85.4 299.2 82.4 300.8 80.3 300.9 80.2 301.1 80 301.2 79.8L302.5 78.6C304.3 76.8 307.2 76.7 309.1 78.4 309.8 79 310.5 79.6 311 79.9 312.9 81.1 315.1 81.7 317.8 81.7 318.7 81.7 319.6 81.6 320.6 81.4 321.5 81.2 322.4 80.8 323.3 80.3 324.1 79.8 324.8 79.2 325.3 78.4 325.8 77.6 326.1 76.7 326.1 75.7 326.1 73.9 325.4 72.6 324.1 71.7 322.8 70.8 321.1 70.1 319.1 69.6 317.1 69 314.9 68.5 312.6 68 310.3 67.6 308.1 66.8 306.1 65.8 304.1 64.7 302.4 63.2 301.1 61.4 299.8 59.5 299.1 56.8 299.1 53.5 299.1 50.6 299.7 48.1 300.8 45.9 302 43.8 303.5 42 305.4 40.7 307.2 39.3 309.4 38.3 311.8 37.6 314.2 36.9 316.7 36.6 319.2 36.6 322.5 36.6 325.8 37.2 329.1 38.4 330.3 38.9 331.6 39.7 333.1 40.8 335.1 42.5 335.5 45.5 333.8 47.6 333.7 47.7 333.5 47.9 333.3 48L331.8 49.5C330.1 51.1 327.5 51.2 325.7 49.9ZM354.1 37.9H356.4C359.1 37.9 361.2 40.1 361.2 42.7V46.1C362.5 43.6 364.3 41.4 366.8 39.5 369.3 37.6 372.6 36.6 376.7 36.6 384.6 36.6 389.8 39.9 392.4 46.3 394.2 43 396.4 40.5 399.2 39 401.9 37.4 405.1 36.6 408.9 36.6 412.2 36.6 415 37.2 417.3 38.4 419.6 39.5 421.4 41.1 422.9 43.2 424.3 45.2 425.3 47.6 425.9 50.3 426.6 53 426.9 55.9 426.9 59.1V85.4C426.9 88.1 424.7 90.2 422.1 90.2H419.2C416.5 90.2 414.4 88.1 414.4 85.4V60.6C414.4 59 414.2 57.4 414 56 413.7 54.5 413.2 53.2 412.5 52 411.8 50.9 410.9 50 409.7 49.4 408.5 48.7 407 48.4 405.1 48.4 403.2 48.4 401.5 48.8 400.1 49.5 398.8 50.3 397.7 51.3 396.8 52.6 395.9 53.9 395.3 55.3 394.9 56.9 394.6 58.6 394.4 60.2 394.4 61.9V85.4C394.4 88.1 392.2 90.2 389.6 90.2H386.6C384 90.2 381.9 88.1 381.9 85.4V59.1C381.9 55.8 381.2 53.2 379.9 51.3 378.6 49.3 376.4 48.4 373.3 48.4 371.2 48.4 369.5 48.7 368 49.5 366.6 50.2 365.4 51.2 364.5 52.4 363.6 53.7 362.9 55.1 362.5 56.7 362.1 58.3 361.8 59.9 361.8 61.7V85.4C361.8 88.1 359.7 90.2 357.1 90.2H354.1C351.5 90.2 349.3 88.1 349.3 85.4V42.7C349.3 40.1 351.5 37.9 354.1 37.9ZM447.1 37.9H450C452.7 37.9 454.8 40.1 454.8 42.7V85.4C454.8 88.1 452.7 90.2 450 90.2H447.1C444.5 90.2 442.3 88.1 442.3 85.4V42.7C442.3 40.1 444.5 37.9 447.1 37.9ZM440.5 20.2C440.5 18.1 441.3 16.2 442.8 14.7 444.3 13.1 446.2 12.3 448.5 12.3 450.8 12.3 452.7 13.1 454.2 14.6 455.8 16 456.6 17.9 456.6 20.2 456.6 22.4 455.8 24.3 454.2 25.8 452.7 27.3 450.8 28 448.5 28 446.2 28 444.3 27.2 442.8 25.7 441.3 24.1 440.5 22.3 440.5 20.2ZM501.7 50.8C501.2 50.3 500.8 50 500.4 49.8 498.8 48.9 497.1 48.4 495.5 48.4 493.2 48.4 491.1 48.8 489.3 49.7 487.5 50.6 486 51.7 484.7 53.2 483.4 54.6 482.4 56.3 481.8 58.2 481.1 60.1 480.8 62 480.8 64.1 480.8 66.1 481.1 68.1 481.8 70 482.4 71.8 483.4 73.5 484.7 75 486 76.4 487.5 77.6 489.3 78.5 491.1 79.3 493.2 79.8 495.5 79.8 497.4 79.8 499.2 79.3 500.9 78.5 501.2 78.3 501.6 78.1 502 77.8 504 76.4 506.8 76.6 508.4 78.5L510.3 80.6C512 82.5 511.8 85.4 509.9 87.1 509.7 87.3 509.4 87.4 509.2 87.6 507.5 88.5 505.9 89.3 504.2 89.9 502.6 90.5 501 90.9 499.4 91.1 497.9 91.4 496.6 91.5 495.5 91.5 491.7 91.5 488.2 90.9 484.8 89.6 481.5 88.3 478.6 86.4 476.2 84 473.8 81.6 471.8 78.7 470.4 75.3 469 72 468.3 68.2 468.3 64.1 468.3 59.9 469 56.2 470.4 52.8 471.8 49.4 473.8 46.5 476.2 44.1 478.6 41.7 481.5 39.9 484.8 38.6 488.2 37.3 491.7 36.6 495.5 36.6 498.7 36.6 501.9 37.3 505.1 38.5 506.3 39 507.8 39.9 509.5 41.1 511.6 42.7 512 45.7 510.4 47.8 510.3 48 510.2 48.1 510.1 48.3L508.1 50.3C506.4 52.1 503.7 52.3 501.7 50.8Z" fill="#FA2906"/><path d="M129.8 68.4L120.1 58.7C119.3 58 118.9 56.9 118.9 55.8V43.9C118.9 32.9 117.8 29 115.6 24.9 113.5 20.9 110.3 17.8 106.3 15.6 102.3 13.5 98.3 12.3 87.4 12.3H71.7C71.2 12.3 70.9 12 70.9 11.5 70.9 11.3 71 11.1 71.1 10.9L80.8 1.2C81.6 0.4 82.6 0 83.7 0H89.2C103.8 0 109.1 1.5 114.4 4.4 119.8 7.3 124 11.5 126.8 16.8 129.7 22.2 131.2 27.5 131.2 42.1V67.9C131.2 68.3 130.8 68.7 130.4 68.7 130.2 68.7 130 68.6 129.8 68.4Z" class="a"/><path d="M62.9 130.1L72.6 120.4C73.4 119.6 74.4 119.2 75.5 119.2H87.4C98.3 119.2 102.3 118 106.3 115.9 110.3 113.7 113.5 110.6 115.6 106.6 117.8 102.5 118.9 98.6 118.9 87.6V71.8C118.9 71.4 119.3 71 119.7 71 120 71 120.2 71.1 120.3 71.3L130 81C130.8 81.8 131.2 82.8 131.2 83.9V89.4C131.2 104 129.7 109.3 126.8 114.7 124 120 119.8 124.2 114.4 127.1 109.1 130 103.8 131.5 89.2 131.5H63.5C63 131.5 62.7 131.1 62.7 130.7 62.7 130.5 62.8 130.2 62.9 130.1Z" class="b"/><path d="M1.4 63L11.1 72.8C11.9 73.5 12.3 74.6 12.3 75.7V87.6C12.3 98.6 13.4 102.5 15.6 106.6 17.7 110.6 20.9 113.7 24.9 115.9 28.9 118 32.9 119.2 43.8 119.2H59.5C60 119.2 60.3 119.5 60.3 120 60.3 120.2 60.3 120.4 60.1 120.6L50.4 130.3C49.6 131.1 48.6 131.5 47.5 131.5H42.1C27.4 131.5 22.1 130 16.8 127.1 11.4 124.2 7.2 120 4.4 114.7 1.5 109.3 0 104 0 89.4V63.6C0 63.2 0.4 62.8 0.8 62.8 1 62.8 1.2 62.9 1.4 63Z" class="c"/><path d="M68.3 1.4L58.6 11.1C57.8 11.9 56.8 12.3 55.7 12.3H43.8C32.9 12.3 28.9 13.5 24.9 15.6 20.9 17.8 17.7 20.9 15.6 24.9 13.4 29 12.3 32.9 12.3 43.9V59.7C12.3 60.1 11.9 60.5 11.5 60.5 11.3 60.5 11.1 60.4 10.9 60.2L1.2 50.5C0.4 49.7 0 48.7 0 47.6V42.1C0 27.5 1.5 22.2 4.4 16.8 7.2 11.5 11.4 7.3 16.8 4.4 22.1 1.5 27.4 0 42.1 0H67.7C68.2 0 68.5 0.4 68.5 0.8 68.5 1 68.5 1.2 68.3 1.4Z" class="d"/><path d="M109.3 48L96.1 35.3C95.2 34.4 94.2 33.8 93.1 33.4 92.2 33.1 91.2 32.9 90.2 32.9H51.2C50.7 32.9 50.4 32.5 50.4 32.1 50.4 31.8 50.4 31.6 50.6 31.5L60.3 21.8C61.1 21 62.1 20.5 63.2 20.5H94.3C103.4 20.5 110.7 27.9 110.7 37V47.4C110.7 47.8 110.3 48.2 109.9 48.2 109.7 48.2 109.5 48.1 109.3 48Z" class="a"/><path d="M83.3 109.6L96 96.3C96.8 95.4 97.5 94.4 97.9 93.3 98.2 92.4 98.4 91.4 98.4 90.4V51.3C98.4 50.8 98.8 50.5 99.2 50.5 99.4 50.5 99.7 50.6 99.8 50.7L109.5 60.4C110.3 61.2 110.7 62.3 110.7 63.3V94.5C110.7 103.6 103.4 111 94.3 111H83.9C83.5 111 83.1 110.6 83.1 110.1 83.1 109.9 83.2 109.7 83.3 109.6Z" class="b"/><path d="M21.9 83.5L35.1 96.2C36 97.1 37 97.7 38.1 98.1 39 98.4 40 98.6 41 98.6H80C80.5 98.6 80.9 99 80.9 99.4 80.9 99.7 80.8 99.9 80.6 100L70.9 109.7C70.1 110.5 69.1 110.9 68 110.9H36.9C27.8 110.9 20.5 103.6 20.5 94.5V84.1C20.5 83.7 20.9 83.3 21.3 83.3 21.5 83.3 21.7 83.4 21.9 83.5Z" class="c"/><path d="M47.9 21.9L35.2 35.2C34.4 36.1 33.7 37.1 33.3 38.2 33 39.1 32.8 40.1 32.8 41.1V80.2C32.8 80.7 32.4 81 32 81 31.8 81 31.6 80.9 31.4 80.8L21.7 71.1C20.9 70.3 20.5 69.2 20.5 68.2V37C20.5 27.9 27.8 20.5 36.9 20.5H47.3C47.7 20.5 48.1 20.9 48.1 21.4 48.1 21.6 48 21.8 47.9 21.9Z" class="d"/></svg>