<svg xmlns="http://www.w3.org/2000/svg" width="48" height="39" viewBox="0 0 48 39" fill="none"><path d="M48 4.6C46.2 5.4 44.3 5.9 42.3 6.2 44.4 5 45.9 3 46.7 0.7 44.8 1.9 42.7 2.7 40.4 3.1 38.6 1.2 36 0 33.2 0 27.8 0 23.4 4.4 23.4 9.8 23.4 10.6 23.5 11.4 23.6 12.1 15.4 11.7 8.2 7.8 3.3 1.8 2.5 3.3 2 5 2 6.8 2 10.2 3.8 13.2 6.4 14.9 4.8 14.9 3.2 14.5 1.9 13.7 1.9 13.8 1.9 13.8 1.9 13.8 1.9 18.6 5.3 22.6 9.8 23.5 9 23.7 8.1 23.8 7.2 23.8 6.6 23.8 6 23.8 5.4 23.7 6.6 27.6 10.3 30.4 14.6 30.5 11.2 33.1 7 34.7 2.4 34.7 1.5 34.7 0.8 34.7 0 34.6 4.4 37.4 9.5 39 15.1 39 33.2 39 43.1 24 43.1 11 43.1 10.6 43.1 10.1 43.1 9.7 45 8.3 46.7 6.6 48 4.6Z" fill="#FC2602"/></svg>